<svg xmlns="http://www.w3.org/2000/svg" width="55" height="55" viewBox="0 0 55 55">
    <g fill="none" fill-rule="evenodd">
        <rect width="55" height="55" fill="#F2F8F6" rx="27.5"/>
        <path fill="#000" fill-rule="nonzero" d="M19.272 27.346l6.139-6.077c.175-.174.409-.269.658-.269.25 0 .483.095.658.269l.557.552c.175.173.272.404.272.65 0 .247-.097.487-.272.66l-3.581 3.553h11.379c.513 0 .918.398.918.906v.78c0 .508-.405.945-.918.945h-11.42l3.622 3.574c.175.173.272.398.272.645 0 .246-.097.475-.272.648l-.557.55c-.175.173-.409.268-.658.268-.25 0-.483-.096-.658-.27l-6.14-6.077C19.097 28.48 19 28.247 19 28c0-.248.096-.48.272-.654z"/>
    </g>
</svg>
