<svg xmlns="http://www.w3.org/2000/svg" xmlns:xlink="http://www.w3.org/1999/xlink" width="102" height="102" viewBox="0 0 102 102">
    <defs>
        <filter id="g73csbah5a" width="143.8%" height="143.8%" x="-21.9%" y="-19.4%" filterUnits="objectBoundingBox">
            <feMorphology in="SourceAlpha" operator="dilate" radius="1.5" result="shadowSpreadOuter1"/>
            <feOffset dy="2" in="shadowSpreadOuter1" result="shadowOffsetOuter1"/>
            <feGaussianBlur in="shadowOffsetOuter1" result="shadowBlurOuter1" stdDeviation="4"/>
            <feColorMatrix in="shadowBlurOuter1" values="0 0 0 0 0 0 0 0 0 0 0 0 0 0 0 0 0 0 0.0985850087 0"/>
        </filter>
        <rect id="r1y3bruexb" width="80" height="80" x="0" y="0" rx="40"/>
    </defs>
    <g fill="none" fill-rule="evenodd">
        <g>
            <g>
                <g>
                    <g transform="translate(-1289 -1270) translate(1300 1273) translate(0 6)">
                        <use fill="#000" filter="url(#g73csbah5a)" xlink:href="#r1y3bruexb"/>
                        <use fill="#3DBC9E" xlink:href="#r1y3bruexb"/>
                    </g>
                    <path fill="#FFF" fill-rule="nonzero" d="M24.65 55.63c-.064.369.278.677.638.577l4.644-1.297c.141-.04.287-.059.431-.059.31 0 .617.09.88.263 2.809 1.843 6.075 2.817 9.447 2.817 9.521 0 17.265-7.758 17.241-17.285-.024-9.453-7.745-17.174-17.198-17.198-9.526-.023-17.285 7.72-17.285 17.242 0 2.83.702 5.638 2.029 8.119.168.315.227.677.166 1.029l-.994 5.792zm6.774-20.038h18.493c.809 0 1.566.655 1.637 1.46.083.952-.665 1.75-1.6 1.75H31.463c-.809 0-1.566-.655-1.636-1.46-.084-.952.664-1.75 1.598-1.75zm0 6.986h11.234c.808 0 1.566.655 1.636 1.46.083.952-.664 1.75-1.599 1.75H31.462c-.809 0-1.566-.655-1.636-1.46-.084-.952.664-1.75 1.598-1.75z" transform="translate(-1289 -1270) translate(1300 1273) translate(0 6)"/>
                </g>
            </g>
        </g>
    </g>
</svg>
