<svg xmlns="http://www.w3.org/2000/svg" width="34" height="34" viewBox="0 0 34 34">
    <g fill="none" fill-rule="evenodd">
        <rect width="34" height="34" fill="#E02020" rx="17"/>
        <path fill="#FFF" fill-rule="nonzero" stroke="#FFF" d="M18.322 17l4.486-4.487c.124-.124.192-.288.192-.464 0-.176-.068-.341-.192-.464l-.393-.393c-.123-.124-.288-.192-.464-.192-.176 0-.34.068-.464.192L17 15.678l-4.487-4.486c-.123-.124-.288-.192-.464-.192-.175 0-.34.068-.464.192l-.393.393c-.256.256-.256.672 0 .928L15.679 17l-4.487 4.487c-.124.124-.192.288-.192.464 0 .176.068.34.192.464l.393.393c.124.124.289.192.464.192.176 0 .34-.068.464-.192L17 18.321l4.487 4.487c.123.124.288.192.464.192h0c.176 0 .34-.068.464-.192l.393-.393c.124-.123.192-.288.192-.464 0-.176-.068-.34-.192-.464L18.322 17z"/>
    </g>
</svg>
