<svg xmlns="http://www.w3.org/2000/svg" width="37" height="52" viewBox="0 0 37 52">
    <g fill="none" fill-rule="evenodd">
        <rect width="36" height="36" x=".5" y=".5" fill="#E1EBE7" stroke="#E1EBE7" rx="18"/>
        <g fill="#FFF">
            <path d="M8.5 12.526c4.694 0 8.5 3.806 8.5 8.5v12.527c0 4.694-3.806 8.5-8.5 8.5S0 38.247 0 33.553V21.026c0-4.694 3.806-8.5 8.5-8.5z" transform="translate(10 9)"/>
            <path fill-rule="nonzero" stroke="#FFF" d="M8.053 0c-2.96 0-5.369 2.408-5.369 5.368 0 2.96 2.41 5.369 5.369 5.369 2.96 0 5.368-2.408 5.368-5.369C13.421 2.408 11.012 0 8.053 0z" transform="translate(10 9)"/>
        </g>
    </g>
</svg>
