<svg xmlns="http://www.w3.org/2000/svg" width="58" height="58" viewBox="0 0 58 58">
    <g fill="none" fill-rule="evenodd">
        <rect width="57.704" height="57.704" fill="#5C9943" rx="28.852"/>
        <g fill="#FFF" fill-rule="nonzero">
            <path d="M19.015 12.614l-5.587-.822-2.502-5.04c-.142-.245-.456-.33-.702-.188-.079.045-.144.11-.19.189l-2.502 5.039-5.587.822c-.281.039-.478.298-.44.58.017.12.076.23.166.311l4.045 3.908-.96 5.553c-.047.198.035.404.205.514.15.11.351.124.515.035l5.004-2.605 5.005 2.605.205.068c.113.01.225-.027.309-.103.17-.11.253-.316.206-.514l-.96-5.553 4.045-3.908c.21-.19.227-.515.037-.726-.081-.09-.192-.148-.312-.165zM10.309 4.456c.284 0 .514-.23.514-.514V.514c0-.284-.23-.514-.514-.514-.284 0-.514.23-.514.514v3.428c0 .284.23.514.514.514zM20.73 3.6c-.232-.153-.541-.11-.72.102l-2.057 2.742c-.17.227-.125.55.103.72.09.065.197.1.308.103.163.006.318-.072.411-.206l2.057-2.742c.17-.227.124-.55-.103-.72zM2.596 7.267c.111-.002.219-.038.309-.103.227-.17.273-.493.102-.72L.951 3.702c-.18-.211-.489-.255-.72-.103-.227.17-.273.493-.103.72l2.057 2.742c.093.134.248.212.411.206z" transform="translate(18 17)"/>
        </g>
    </g>
</svg>
