<svg xmlns="http://www.w3.org/2000/svg" width="20" height="20" viewBox="0 0 20 20">
    <g fill="none" fill-rule="evenodd">
        <g fill="#FFF" fill-rule="nonzero">
            <g>
                <g>
                    <path d="M10.697 30.665c-.037.214.161.393.37.335l2.693-.752c.083-.023.167-.034.25-.034.18 0 .358.052.511.152C16.15 31.436 18.044 32 20 32c5.522 0 10.014-4.5 10-10.025-.014-5.483-4.492-9.961-9.975-9.975C14.5 11.986 10 16.478 10 22c0 1.642.407 3.27 1.176 4.71.098.182.132.392.097.596l-.576 3.36zm3.93-11.622h10.725c.469 0 .908.38.95.847.047.552-.386 1.015-.928 1.015H14.648c-.469 0-.908-.38-.95-.847-.047-.552.386-1.015.928-1.015zm0 4.052h6.515c.468 0 .908.38.949.847.048.552-.386 1.015-.928 1.015h-6.515c-.469 0-.908-.38-.95-.847-.047-.552.386-1.015.928-1.015z" transform="translate(-711 -250) translate(701 238)"/>
                </g>
            </g>
        </g>
    </g>
</svg>
