<svg xmlns="http://www.w3.org/2000/svg" width="58" height="58" viewBox="0 0 58 58">
    <g fill="none" fill-rule="evenodd">
        <rect width="57.6" height="57.6" fill="#E5E5E5" rx="28.8"/>
        <g fill="#888" fill-rule="nonzero">
            <path d="M2.16 21.617c-1.19 0-2.16-.969-2.16-2.16 0-1.19.97-2.16 2.16-2.16 1.19 0 2.16.97 2.16 2.16 0 1.191-.97 2.16-2.16 2.16zM4.32 12.977c0 1.191-.97 2.16-2.16 2.16-1.19 0-2.16-.969-2.16-2.16v-10.8C0 .987.97.017 2.16.017c1.19 0 2.16.97 2.16 2.16v10.8z" transform="translate(26.4 18)"/>
        </g>
    </g>
</svg>
