<svg xmlns="http://www.w3.org/2000/svg" width="15" height="17" viewBox="0 0 15 17">
    <g fill="#555" fill-rule="evenodd" transform="translate(1 1)">
        <path fill-rule="nonzero" stroke="#555" stroke-width=".5" d="M12.819 3.108L9.892.18C9.776.064 9.62 0 9.455 0h-7.43C.907 0 0 .908 0 2.024v11.43c0 1.117.908 2.025 2.024 2.025h8.952c1.116 0 2.024-.908 2.024-2.024v-9.91c0-.165-.064-.32-.181-.437zm-2.842-1.56l1.475 1.475H9.977V1.548zm.999 13.024H2.024c-.616 0-1.117-.501-1.117-1.117V2.025c0-.617.501-1.118 1.117-1.118H9.07v2.57c0 .25.203.453.453.453h2.57v9.525c0 .616-.501 1.117-1.117 1.117z"/>
        <rect width="7" height="2" x="3" y="6" rx="1"/>
        <rect width="7" height="2" x="3" y="10" rx="1"/>
    </g>
</svg>
