<svg xmlns="http://www.w3.org/2000/svg" width="16" height="16" viewBox="0 0 16 16">
    <g>
        <path d="M1.845 8.388c-.03-.247-.045-.492-.045-.708 0-3.222 2.658-5.88 5.88-5.88 1.503 0 2.91.606 3.945 1.551l-.519.528c-.117.117-.162.288-.117.45.054.153.18.27.342.306.09.018 3.066.977 2.877.939.241.08.597-.177.531-.531L14.1 1.836c-.036-.162-.153-.297-.315-.342-.153-.045-.324 0-.441.117l-.441.432C11.544.774 9.678 0 7.68 0 3.459 0 0 3.459 0 7.68v.018c0 .254.012.45.025.6.018.198.164.361.36.4l.925.185c.3.06.571-.192.535-.495zM14.977 6.66l-.927-.188c-.301-.061-.573.191-.536.495.032.263.046.518.046.713 0 3.222-2.658 5.88-5.88 5.88-1.503 0-2.91-.606-3.945-1.56l.519-.519c.117-.117.162-.288.117-.45-.054-.153-.18-.27-.342-.306-.09-.018-3.066-.977-2.877-.939-.153-.027-.306.018-.405.126-.108.099-.153.26-.126.405.018.09.677 3.366.64 3.177.035.162.152.297.314.342.188.047.345-.01.441-.117l.432-.432c1.359 1.269 3.225 2.073 5.232 2.073 4.221 0 7.68-3.459 7.68-7.68v-.027c0-.2-.007-.395-.024-.59-.017-.199-.163-.362-.359-.402z"/>
    </g>
</svg>
