<svg xmlns="http://www.w3.org/2000/svg" width="20" height="17" viewBox="0 0 20 17">
    <g fill="none" fill-rule="evenodd">
        <g fill="#FFF" fill-rule="nonzero">
            <path d="M731.025 309.58c1.092.007 1.974.893 1.975 1.985v.033l-1.14 8.558c-.014 1.087-.898 1.96-1.984 1.961h-13.744c-1.087 0-1.97-.874-1.985-1.96l-1.147-8.56v-.032c.001-1.092.883-1.978 1.975-1.985zm-9.382-3.58c.076-.002.148.03.196.088l1.275 1.516h6.447c.738 0 1.36.548 1.456 1.28H714.97v-1.413c.001-.812.659-1.47 1.47-1.47z" transform="translate(-713 -306)"/>
        </g>
    </g>
</svg>
